<svg version="1.1" id="Layer_1" xmlns="http://www.w3.org/2000/svg" xmlns:xlink="http://www.w3.org/1999/xlink" x="0px" y="0px"
	 width="120" height="60" viewBox="0 0 400 125" enable-background="new 0 0 400 125" xml:space="preserve">
<path fill="#FEFEFF" opacity="1.000000" stroke="none" 
	d="
M65.779366,1.301095 
	C176.267715,1.000000 286.535461,1.025242 396.803040,0.891904 
	C400.546997,0.887377 401.101685,1.829970 401.089081,5.298431 
	C400.947968,44.108158 400.943268,82.918808 401.095459,121.728455 
	C401.109344,125.270454 400.446045,126.108330 396.776062,126.102982 
	C306.496613,125.971390 216.216949,126.000000 125.468658,126.000000 
	C124.769241,121.410889 122.861122,117.409927 120.833000,113.384499 
	C102.704285,77.402451 84.881775,41.266792 66.656128,5.333194 
	C66.058990,4.155875 65.229103,3.050561 65.779366,1.301095 
z"/>
<path fill="#2885FF" opacity="1.000000" stroke="none" 
	d="
M65.600006,1.000000 
	C77.451706,24.041599 88.888008,47.090874 100.360390,70.122169 
	C108.365860,86.193474 116.414520,102.243286 124.460732,118.294250 
	C125.590332,120.547615 126.943764,122.741409 125.035362,125.620186 
	C109.645775,126.000000 94.291542,126.000000 78.468658,126.000000 
	C76.568375,125.138824 75.189766,124.240883 74.426964,122.646118 
	C66.254791,105.560890 55.742630,89.482056 50.075741,71.339966 
	C42.944748,48.510647 45.829502,26.325909 57.727139,5.447494 
	C58.633438,3.857083 59.539009,2.246132 61.669506,1.227499 
	C63.066669,1.000000 64.133339,1.000000 65.600006,1.000000 
z"/>
<path fill="#FCFDFF" opacity="1.000000" stroke="none" 
	d="
M61.531342,1.000000 
	C44.872791,27.742046 42.638897,55.548935 56.621353,84.198868 
	C63.383217,98.053864 69.830444,112.088036 77.823662,125.706192 
	C68.979103,126.000000 59.958210,126.000000 50.468658,126.000000 
	C49.665154,125.622383 49.453091,125.185204 49.381824,124.317841 
	C50.240898,121.411888 51.366920,118.973297 52.060070,116.001740 
	C52.712391,113.732964 52.681107,111.737366 53.029922,109.414795 
	C53.449268,107.572433 53.670444,106.084534 53.648193,104.183563 
	C53.595768,102.258904 53.677090,100.715889 53.571987,98.791168 
	C53.116062,95.900093 52.739048,93.381294 52.208305,90.507385 
	C51.661194,86.709969 50.741184,83.398903 49.395050,79.832047 
	C46.062965,73.898933 43.975376,67.677277 39.896412,62.565800 
	C35.976852,57.654079 33.830589,57.951130 31.142033,63.788372 
	C30.447245,65.296852 29.652878,66.760452 28.929314,68.634903 
	C27.701202,71.219543 26.518440,73.442810 25.296185,76.025055 
	C24.432793,77.715157 23.684088,79.083336 22.892334,80.800583 
	C22.134325,82.254951 21.505713,83.404129 20.833225,84.898346 
	C20.084192,86.352325 19.467934,87.506508 18.801590,89.005127 
	C17.714689,91.057243 16.795881,92.823914 15.850170,94.953186 
	C14.515434,97.433899 13.404311,99.650917 12.203263,102.206924 
	C11.323965,103.957199 10.569967,105.386703 9.780399,107.194328 
	C6.856285,111.984528 5.710871,117.399239 1.356143,121.078262 
	C1.000000,82.260742 1.037296,43.521370 0.927402,4.782422 
	C0.918845,1.765965 1.476145,0.876122 4.700531,0.908268 
	C23.486351,1.095561 42.274994,1.000000 61.531342,1.000000 
z"/>
<path fill="#2784FE" opacity="1.000000" stroke="none" 
	d="
M0.999999,121.499962 
	C3.432241,116.392799 5.864485,111.785599 8.561432,106.941444 
	C17.840149,111.361282 26.549572,116.550171 35.198891,121.841446 
	C36.490509,122.631607 37.695271,123.582207 37.219212,125.698822 
	C26.300392,126.000000 15.595376,125.808098 4.904260,126.109398 
	C1.402930,126.208069 0.310899,125.273582 0.999999,121.499962 
z"/>
<path fill="#227EF9" opacity="1.000000" stroke="none" 
	d="
M37.463184,126.000000 
	C36.116611,121.869324 31.964195,121.653564 29.290167,119.751991 
	C22.864883,115.182785 15.226486,112.540947 8.989874,107.031631 
	C9.447212,105.301613 10.068291,103.898750 10.911228,102.245567 
	C12.769489,100.681282 14.259055,101.477516 15.710326,102.351036 
	C26.367268,108.765495 37.209675,114.861366 47.947186,121.137321 
	C48.950058,121.723488 49.982761,122.287102 50.238739,123.849106 
	C49.981853,124.603577 49.866589,125.009224 49.875660,125.707428 
	C45.975456,126.000000 41.950912,126.000000 37.463184,126.000000 
z"/>
<path fill="#348CFF" opacity="1.000000" stroke="none" 
	d="
M348.962708,84.866974 
	C348.962646,86.012772 348.921997,86.681374 348.969757,87.343597 
	C349.152374,89.876244 349.111267,91.812843 345.487762,91.761292 
	C341.622070,91.706276 342.290039,89.291870 342.286285,87.043343 
	C342.270630,77.649506 342.279663,68.255638 341.298309,58.695900 
	C338.198883,67.551376 335.157166,76.427704 331.968323,85.250862 
	C330.873383,88.280434 330.887512,91.845032 325.632202,91.888718 
	C320.472748,91.931610 320.204559,88.615608 319.098419,85.487801 
	C315.957123,76.605133 312.890594,67.696022 308.755890,58.886703 
	C308.755890,68.514488 308.643707,78.144325 308.820496,87.768867 
	C308.877563,90.876213 307.852417,91.897095 304.816193,91.715904 
	C302.593750,91.583267 302.021973,90.657814 302.031586,88.623596 
	C302.087494,76.808167 302.103699,64.992027 302.021088,53.176914 
	C302.004791,50.842537 302.752411,50.077885 305.142639,49.954517 
	C313.186249,49.539364 313.172211,49.435871 315.888916,57.233788 
	C318.980591,66.108040 322.089508,74.976280 325.585907,84.976753 
	C329.406830,73.993225 332.830811,64.132324 336.269257,54.276463 
	C337.515137,50.705288 345.017090,48.131329 348.106323,50.242451 
	C349.454865,51.164043 348.935974,52.669956 348.940796,53.932304 
	C348.979492,64.083702 348.962616,74.235298 348.962708,84.866974 
z"/>
<path fill="#2F89FF" opacity="1.000000" stroke="none" 
	d="
M163.146210,75.243240 
	C165.421509,85.182205 161.611511,90.692650 151.998352,92.167671 
	C147.293915,92.889503 142.713165,92.614883 138.217270,91.108414 
	C133.605728,89.563171 130.631302,86.375809 129.434082,81.690720 
	C129.078094,80.297592 127.870605,78.122398 130.496933,77.669670 
	C132.436066,77.335396 134.573441,76.757278 135.692322,79.851273 
	C138.197205,86.777893 147.712936,89.792229 154.268112,86.141487 
	C157.061859,84.585571 157.485321,82.128441 157.208817,79.317352 
	C156.894852,76.125214 154.667999,74.696404 151.927307,74.133652 
	C147.859772,73.298462 143.700912,72.908546 139.632629,72.076385 
	C133.542297,70.830620 130.529037,67.538338 130.167816,62.131390 
	C129.804962,56.700314 132.792953,52.094734 138.203568,50.238094 
	C143.724106,48.343723 149.354553,48.386990 154.864258,50.307297 
	C158.480774,51.567768 161.185654,54.024448 162.486328,57.706387 
	C162.981766,59.108852 164.359512,61.218491 162.077209,61.904125 
	C160.374603,62.415611 158.148895,63.167450 156.684387,60.202599 
	C153.750473,54.262886 147.109497,52.314812 140.997070,54.971790 
	C138.048019,56.253693 136.685730,58.431564 136.900101,61.660309 
	C137.117737,64.937950 139.306625,66.298843 142.084442,66.834648 
	C146.324341,67.652489 150.633301,68.114487 154.869751,68.947243 
	C158.430252,69.647125 161.416214,71.360619 163.146210,75.243240 
z"/>
<path fill="#2F89FF" opacity="1.000000" stroke="none" 
	d="
M223.730423,91.515213 
	C220.427643,91.946213 218.686890,91.526848 218.766098,87.782852 
	C219.005524,76.463165 218.966644,65.133331 218.780792,53.811638 
	C218.728271,50.611973 219.847183,49.850681 222.812241,49.970325 
	C228.133057,50.185024 233.470230,49.952877 238.797134,50.067177 
	C245.721237,50.215748 249.780106,52.818436 251.344818,57.880878 
	C253.020462,63.302334 251.194214,67.511292 245.093231,71.857254 
	C253.157562,76.006248 250.034195,83.707802 250.905609,90.122780 
	C251.164230,92.026711 249.063232,91.504738 247.843613,91.617325 
	C246.185959,91.770340 244.798004,91.387543 244.642624,89.401955 
	C244.435318,86.752960 244.300903,84.098106 244.148773,81.444992 
	C243.853088,76.287987 241.909943,74.240921 236.875946,73.801308 
	C225.152420,72.777489 225.221130,72.778236 225.095215,84.308937 
	C225.069382,86.676605 226.120285,89.286873 223.730423,91.515213 
z"/>
<path fill="#2F89FF" opacity="1.000000" stroke="none" 
	d="
M177.511444,73.450989 
	C179.057907,84.127907 183.243744,87.674194 193.132980,87.053185 
	C199.309311,86.665321 202.728149,84.389687 204.336807,78.321045 
	C205.289673,74.726463 207.556625,74.846169 209.900909,75.332893 
	C213.296234,76.037834 211.147934,78.703644 210.816254,80.161453 
	C209.594513,85.531158 206.273544,89.246246 200.951004,91.128716 
	C191.732132,94.389229 180.857010,92.336166 175.471619,86.205399 
	C169.858063,79.814888 168.691376,66.990341 173.205078,58.831905 
	C178.113434,49.960167 186.375580,48.266148 195.513885,49.146305 
	C202.660294,49.834614 208.251953,52.998634 210.380219,60.400700 
	C210.859695,62.068317 212.641617,64.467583 209.684219,65.411201 
	C207.236343,66.192238 205.099167,65.845093 204.036743,62.465698 
	C202.115753,56.355461 197.359558,53.813366 190.326385,54.315102 
	C183.677765,54.789410 179.415405,58.084763 178.123322,64.125488 
	C177.501663,67.031815 176.967606,70.019226 177.511444,73.450989 
z"/>
<path fill="#2A86FF" opacity="1.000000" stroke="none" 
	d="
M284.895966,91.198608 
	C282.067688,91.737511 279.625427,92.426483 277.161194,92.516663 
	C265.917419,92.928169 259.922516,87.492256 259.519592,76.292732 
	C259.250153,68.804695 259.530762,61.298328 259.402588,53.802948 
	C259.357697,51.175583 259.893036,49.917274 262.940094,49.939049 
	C265.930206,49.960411 266.045471,51.429840 266.024628,53.667774 
	C265.954742,61.164631 265.918945,68.663780 266.026428,76.159813 
	C266.163330,85.710892 274.744751,90.565262 283.192017,85.963623 
	C285.971832,84.449318 286.957092,81.929268 287.268860,78.958176 
	C288.123718,70.811424 287.549133,62.642265 287.703217,54.484997 
	C287.747162,52.158615 287.224304,49.885124 291.036682,49.936237 
	C294.649963,49.984680 294.005981,52.181038 294.009918,54.250938 
	C294.024414,61.915039 294.076965,69.580002 293.985046,77.243080 
	C293.909058,83.580269 291.490906,88.552040 284.895966,91.198608 
z"/>
<path fill="#1E79F3" opacity="1.000000" stroke="none" 
	d="
M50.376678,123.968262 
	C37.613190,116.346451 24.849995,108.976227 11.493707,102.000938 
	C12.152174,99.775146 13.171262,97.555046 14.438819,95.114365 
	C16.028004,93.953484 17.215912,94.533524 18.364004,95.289787 
	C29.470034,102.605446 41.183388,108.882973 52.949806,115.730995 
	C53.043110,118.844467 51.773674,121.266861 50.376678,123.968262 
z"/>
<path fill="#1973ED" opacity="1.000000" stroke="none" 
	d="
M53.387115,115.734734 
	C44.201733,113.369171 36.886265,107.578491 28.833057,103.200424 
	C24.237354,100.702003 19.889584,97.747528 15.058732,94.946091 
	C15.526254,93.033951 16.365219,91.174103 17.458448,89.094498 
	C18.771811,88.292282 19.667229,88.805374 20.449671,89.408447 
	C27.446365,94.801186 35.550186,98.362328 42.965347,103.059975 
	C46.470562,105.280594 50.086956,107.272331 54.301338,108.825790 
	C54.233353,111.218338 53.927532,113.321075 53.387115,115.734734 
z"/>
<path fill="#0C61DA" opacity="1.000000" stroke="none" 
	d="
M24.393175,76.293381 
	C25.162058,73.776505 26.181183,71.554024 27.452383,69.114471 
	C29.952116,67.376816 31.763548,68.770660 33.603409,69.810356 
	C38.880318,72.792305 43.872768,76.295219 49.893234,78.715179 
	C52.122372,82.049644 52.643784,85.624908 53.537842,89.491844 
	C50.970146,92.168953 48.605732,90.627571 46.339035,89.362541 
	C39.009670,85.272095 31.911459,80.785103 24.393175,76.293381 
z"/>
<path fill="#1066E0" opacity="1.000000" stroke="none" 
	d="
M23.909908,76.255745 
	C29.281099,76.679680 32.916718,80.356506 37.278194,82.585968 
	C42.348484,85.177780 46.557491,89.573669 53.120949,89.921722 
	C53.977760,92.346748 54.402187,94.793770 54.762634,97.615868 
	C53.301506,99.379105 51.553539,99.370117 50.083683,98.528122 
	C40.601746,93.096489 30.502123,88.678741 21.870354,81.244019 
	C22.373705,79.433815 23.025293,77.973160 23.909908,76.255745 
z"/>
<path fill="#0A5BD3" opacity="1.000000" stroke="none" 
	d="
M50.183281,78.553833 
	C44.664154,79.548645 41.186722,75.274162 36.789394,73.189857 
	C33.985962,71.861046 31.733246,69.438263 28.095543,68.928253 
	C29.089733,65.921913 30.370790,62.892052 31.887413,59.985092 
	C33.668373,56.571480 35.961754,56.757694 38.605125,59.203041 
	C43.043846,63.309246 45.173336,68.891151 47.948689,74.007103 
	C48.671623,75.339729 50.160908,76.430939 50.183281,78.553833 
z"/>
<path fill="#136BE5" opacity="1.000000" stroke="none" 
	d="
M21.482878,81.083969 
	C30.768112,86.099174 39.857201,91.231529 48.821682,96.573021 
	C50.501198,97.573761 52.057625,98.128281 54.315804,97.992020 
	C54.791672,99.710960 54.884697,101.430977 54.884747,103.573318 
	C53.342323,105.371529 51.649502,105.117249 50.167820,104.324562 
	C40.104263,98.940598 30.076454,93.487404 20.640587,87.030457 
	C20.082718,86.648705 19.824661,86.003746 19.719418,85.001076 
	C20.298817,83.513908 20.771225,82.393684 21.482878,81.083969 
z"/>
<path fill="#156EE9" opacity="1.000000" stroke="none" 
	d="
M19.543324,84.835815 
	C26.471710,90.767586 34.963234,93.938705 42.467720,98.696480 
	C46.053490,100.969826 49.471386,103.781998 54.412819,103.995071 
	C54.797882,105.475929 54.803989,106.956207 54.674637,108.776047 
	C50.214752,109.458664 46.988842,106.974213 43.649227,104.836090 
	C35.298134,99.489487 25.893221,95.842751 18.041126,89.019012 
	C18.228559,87.595650 18.744402,86.316574 19.543324,84.835815 
z"/>
<path fill="#F5F9FF" opacity="1.000000" stroke="none" 
	d="
M244.166397,65.922684 
	C238.713608,71.153328 232.333359,68.217628 226.459671,68.704781 
	C224.893799,68.834648 225.232147,67.069427 225.134628,65.979836 
	C224.158112,55.069481 224.345932,54.892166 236.455017,55.175732 
	C243.998703,55.352386 246.030472,58.021915 244.166397,65.922684 
z"/>
</svg>