<?xml version="1.0" encoding="UTF-8"?>
<svg class="fill-blue-500" width="700pt" height="700pt" version="1.1" viewBox="0 0 700 700" xmlns="http://www.w3.org/2000/svg">
 <path d="m157.5 87.5v385c0 13.547 8.8203 28 28.281 39.27 30.816 17.816 92.73 30.73 164.22 30.73s133.4-12.914 164.22-30.73c19.461-11.27 28.281-25.723 28.281-39.27v-385.32c-0.14062-13.457-8.9609-27.77-28.281-38.953-30.816-17.816-92.73-30.73-164.22-30.73s-133.4 12.914-164.22 30.73c-19.461 11.27-28.281 25.723-28.281 39.27zm350 296.59c-32.566 15.941-90.895 27.16-157.5 27.16-66.621 0-124.95-11.219-157.5-27.16v88.41c0 1.4688 1.6797 2.2578 3.1328 3.5859 4.5859 4.1133 11.375 7.7734 19.773 11.219 30.363 12.406 79.383 20.195 134.59 20.195s104.23-7.7891 134.59-20.195c8.3984-3.4453 15.188-7.1055 19.773-11.219 1.4531-1.3281 3.1328-2.1172 3.1328-3.5859zm0-122.5c-32.566 15.941-90.895 27.16-157.5 27.16-66.621 0-124.95-11.219-157.5-27.16v79.645c0.015625 1.5039 1.7148 2.3242 3.2188 3.6719 4.6211 4.1328 11.43 7.7695 19.863 11.219 30.363 12.371 79.309 20.125 134.42 20.125 55.211 0 104.23-7.7891 134.59-20.195 8.3984-3.4453 15.188-7.1055 19.773-11.219 1.4531-1.3281 3.1328-2.1172 3.1328-3.5859zm0-131.25c-32.566 15.941-90.895 27.16-157.5 27.16s-124.93-11.219-157.5-27.16v88.395c0.015625 1.5039 1.7148 2.3242 3.2188 3.6719 4.6211 4.1328 11.43 7.7695 19.863 11.219 30.363 12.371 79.309 20.125 134.42 20.125 55.211 0 104.23-7.7891 134.59-20.195 8.3984-3.4453 15.188-7.1055 19.773-11.219 1.4531-1.3281 3.1328-2.1172 3.1328-3.5859zm-157.5-77.84c55.211 0 104.23 7.7891 134.59 20.195 8.3984 3.4453 15.188 7.1055 19.773 11.219 1.4531 1.3281 3.1328 2.1172 3.1328 3.5859s-1.6797 2.2578-3.1328 3.5859c-4.5859 4.1133-11.375 7.7734-19.773 11.219-30.363 12.406-79.383 20.195-134.59 20.195s-104.23-7.7891-134.59-20.195c-8.3984-3.4453-15.188-7.1055-19.773-11.219-1.4531-1.3281-3.1328-2.1172-3.1328-3.5859s1.6797-2.2578 3.1328-3.5859c4.5859-4.1133 11.375-7.7734 19.773-11.219 30.363-12.406 79.383-20.195 134.59-20.195z" fill-rule="evenodd"/>
</svg>
