<?xml version="1.0" encoding="UTF-8"?>
<!DOCTYPE svg  PUBLIC '-//W3C//DTD SVG 20010904//EN'  'http://www.w3.org/TR/2001/REC-SVG-20010904/DTD/svg10.dtd'>
<svg width="128pt" height="50pt" version="1.0" viewBox="0 0 826 499" xmlns="http://www.w3.org/2000/svg">
<g transform="translate(0 499) scale(.1 -.1)">
<path fill="#000000" d="m1660 3451v-48l78-7c42-4 87-10 100-13l22-5v-623-622l-67-7c-135-13-133-12-133-62v-44h570 570l1 38c1 20 4 108 7 195l7 157h-62c-72 0-63 14-88-140-8-52-18-105-20-117l-5-23h-279-278l-7 46c-3 26-6 159-6 296v248l167-2c140-3 168-5 170-18 1-8 7-54 13-102l12-88h49 49v265 265h-49-49l-12-82c-20-144 3-128-186-128h-164v238c0 130 3 254 6 275l7 37h257 258l12-72c7-40 17-102 24-138l11-65 63-3 64-3-7 193c-4 106-9 196-12 201-2 4-249 7-549 7h-544v-49z"/>
<path fill="#000000" d="m3504 3487c-3-8-4-30-2-49l3-33 95-12c52-6 98-12 103-12 4-1 6-281 5-623l-3-623-60-7c-33-5-79-11-102-14l-43-5v-45-44h315 315v44 45l-42 6c-24 3-70 9-103 13l-60 7-3 284-2 283 117-4c96-4 126-8 160-26 70-36 88-75 152-329 32-127 66-244 76-261 32-53 86-75 199-80 60-2 118 0 144 7 41 12 42 13 42 55 0 49 2 48-126 62l-61 6-52 182c-29 99-65 208-80 242-33 71-87 129-145 155-26 11-35 20-26 23 8 2 33 10 55 17 152 46 248 150 275 296 21 121-15 237-99 316-59 56-110 82-209 109-70 19-112 21-454 26-331 4-379 2-384-11zm798-129c99-46 146-142 135-274-6-80-45-162-95-204-65-54-131-72-284-78l-138-5v298 297l163-4c150-3 166-5 219-30z"/>
<path fill="#000000" d="m5454 3487c-3-8-4-30-2-49l3-33 95-12c52-6 98-12 103-12 4-1 6-281 5-623l-3-623-60-7c-33-5-79-11-102-14l-43-5v-45-46l393 4c371 4 396 6 467 27 185 55 290 149 326 291 52 205-83 384-327 434l-64 13 66 22c169 56 261 169 261 321 0 175-99 289-300 347-83 24-809 33-818 10zm774-126c97-43 137-113 137-241 0-88-16-139-58-186-57-66-132-90-314-100l-123-7v283 282l153-4c132-3 159-7 205-27zm2-659c80-26 140-75 172-140 32-66 33-207 1-268-63-119-172-165-401-167l-127-2-3 304-2 303 147-4c113-4 164-10 213-26z"/>
<path fill="#000000" d="m1270 2427c-67-33-162-133-198-208-189-388 74-840 579-993 249-76 611-76 912-1 215 54 372 130 654 317 227 150 262 169 380 204 155 46 383 35 546-26 31-12 57-25 57-29 0-3-13-14-29-24-47-28-137-132-166-192-101-214-6-436 201-470 92-14 185 45 239 151 25 50 30 73 33 149 4 103-16 174-68 251-18 25-29 48-25 52s91 7 193 7c249 0 256-2 942-179 370-95 460-109 710-110 237-1 297 9 453 74 260 108 455 349 459 566 1 74-12 99-35 63-7-13-35-59-61-101-184-302-497-429-921-374-154 20-239 38-565 118-494 120-645 143-894 135-173-5-268-24-373-72l-54-25-60 31c-128 64-351 105-518 96-178-11-308-51-581-182-336-160-467-203-720-234-127-16-412-14-516 4-360 62-611 266-655 533-22 130 17 262 113 390 26 34 52 71 58 82 9 18 8 20-17 20-15 0-48-10-73-23zm3157-946c21-43 28-73 31-142 4-78 2-93-22-146-48-103-111-153-193-153-195 1-281 240-149 413 36 47 117 100 191 126l60 21 28-33c15-17 40-56 54-86z"/>
</g>
</svg>